<?xml version="1.0" encoding="UTF-8" standalone="no"?>
<!-- Created with Inkscape (http://www.inkscape.org/) -->

<svg
   width="15.875mm"
   height="15.875mm"
   viewBox="0 0 15.875 15.875"
   version="1.1"
   id="svg1"
   xml:space="preserve"
   inkscape:version="1.3.2 (091e20ef0f, 2023-11-25)"
   sodipodi:docname="logo.svg"
   xmlns:inkscape="http://www.inkscape.org/namespaces/inkscape"
   xmlns:sodipodi="http://sodipodi.sourceforge.net/DTD/sodipodi-0.dtd"
   xmlns="http://www.w3.org/2000/svg"
   xmlns:svg="http://www.w3.org/2000/svg"><sodipodi:namedview
     id="namedview1"
     pagecolor="#ffffff"
     bordercolor="#999999"
     borderopacity="1"
     inkscape:showpageshadow="2"
     inkscape:pageopacity="0"
     inkscape:pagecheckerboard="0"
     inkscape:deskcolor="#d1d1d1"
     inkscape:document-units="px"
     inkscape:zoom="9.1846588"
     inkscape:cx="29.99567"
     inkscape:cy="31.95546"
     inkscape:window-width="1440"
     inkscape:window-height="831"
     inkscape:window-x="0"
     inkscape:window-y="0"
     inkscape:window-maximized="1"
     inkscape:current-layer="layer1" /><defs
     id="defs1" /><g
     inkscape:label="Layer 1"
     inkscape:groupmode="layer"
     id="layer1"
     transform="translate(-42.186075,-52.322516)"><path
       style="fill:#000000;stroke-width:0.0958462"
       d="m 45.616436,67.25547 c -0.150669,-0.06551 -0.250582,-0.336835 -0.139975,-0.38008 0.03715,-0.01465 3.089045,-0.794861 7.952941,-2.033471 0.569883,-0.145113 1.066321,-0.279462 1.103194,-0.298528 0.08221,-0.04252 0.136302,-0.102456 0.192469,-0.213274 0.0395,-0.07792 0.0459,-0.48936 0.08041,-5.173326 0.02069,-2.798772 0.04269,-5.11359 0.04899,-5.144046 0.0062,-0.03048 0.03661,-0.06333 0.06738,-0.07312 0.04566,-0.01465 0.07579,0.0052 0.16427,0.106098 0.05958,0.06812 0.12477,0.158062 0.144856,0.199908 0.03166,0.06595 0.03329,0.739433 0.01233,5.059209 -0.02634,5.42694 -0.01674,5.113409 -0.1655,5.367341 -0.08162,0.139301 -0.251955,0.294026 -0.414125,0.376199 -0.08132,0.0412 -0.534665,0.165757 -1.200518,0.329819 -0.588432,0.144973 -2.558989,0.635139 -4.379015,1.089231 -1.820027,0.454095 -3.326378,0.825178 -3.347445,0.824634 -0.02116,-4.93e-4 -0.07518,-0.01698 -0.120214,-0.03656 z M 45.057807,66.65083 C 44.923063,66.576 44.927829,66.6313 44.908906,64.923014 l -0.01767,-1.590344 0.183588,0.118774 c 0.590727,0.382139 1.239206,0.570163 1.853431,0.537391 0.679751,-0.03627 1.215647,-0.229804 2.472546,-0.892902 1.426976,-0.752839 1.893947,-0.956932 2.637167,-1.152572 0.361336,-0.09511 0.555692,-0.193515 0.711722,-0.360326 0.181495,-0.194027 0.251128,-0.368973 0.250695,-0.62982 -2.46e-4,-0.164362 -0.01302,-0.243386 -0.05366,-0.332779 -0.101773,-0.223876 -0.321437,-0.408235 -0.55352,-0.464577 -0.14502,-0.0352 -0.421806,-0.01535 -0.674658,0.04868 -0.591273,0.14946 -1.11226,0.386564 -2.368227,1.077753 -0.948577,0.522023 -1.481703,0.751497 -2.078441,0.894628 -0.194119,0.04657 -0.305764,0.05522 -0.724024,0.05586 -0.459361,7.26e-4 -0.511634,-0.0042 -0.735424,-0.06667 -0.310713,-0.08694 -0.475421,-0.149785 -0.710064,-0.270874 l -0.19019,-0.09816 -0.01535,-1.100304 c -0.0086,-0.605167 -0.01698,-2.042943 -0.01906,-3.195053 l -0.0035,-2.094742 0.05707,-0.08383 c 0.03139,-0.04615 0.08924,-0.107704 0.128607,-0.136883 0.04963,-0.03678 0.569982,-0.178171 1.699082,-0.461569 0.895143,-0.224689 2.954939,-0.742806 4.577321,-1.151375 l 2.949787,-0.742857 0.08832,0.04217 c 0.159387,0.07602 0.158062,0.06202 0.143159,1.498829 -0.0074,0.711897 -0.01696,1.298304 -0.02092,1.303135 -0.0042,0.0052 -0.05712,-0.02531 -0.117708,-0.06696 -0.189957,-0.130676 -0.581788,-0.327503 -0.812069,-0.407894 -0.644247,-0.224899 -1.321143,-0.214344 -2.057661,0.03216 -0.378363,0.126607 -0.765922,0.306973 -1.632235,0.759653 -1.311359,0.685218 -1.876585,0.92068 -2.65348,1.105373 -0.458588,0.109034 -0.791575,0.467669 -0.821414,0.884697 -0.02944,0.411196 0.191144,0.737258 0.576022,0.851558 0.189446,0.05631 0.351554,0.051 0.647691,-0.02116 0.61496,-0.149668 1.086081,-0.354983 2.249419,-0.980308 1.585065,-0.852013 2.129546,-1.044512 2.961942,-1.047169 0.538004,-0.0014 0.934416,0.09158 1.420287,0.33431 l 0.24076,0.120285 -0.0069,2.865111 c -0.004,1.575812 -0.01394,3.13663 -0.02232,3.468479 -0.01418,0.561109 -0.01906,0.609028 -0.0697,0.6841 -0.02991,0.0444 -0.09039,0.104984 -0.134372,0.134628 -0.05557,0.03743 -1.446015,0.395475 -4.557428,1.17348 -2.4626,0.61577 -4.503282,1.119182 -4.534845,1.11869 -0.03157,-4.96e-4 -0.08316,-0.01535 -0.114677,-0.03271 z m 2.086032,-8.229537 c -0.285148,-0.135929 -0.393423,-0.449327 -0.252753,-0.731606 0.09257,-0.185796 0.224528,-0.270307 0.43985,-0.281767 0.139651,-0.0074 0.187146,0.0014 0.282055,0.05201 0.174265,0.09309 0.262714,0.236797 0.273793,0.444888 0.01114,0.21009 -0.05814,0.35979 -0.219202,0.473225 -0.13886,0.09781 -0.369332,0.116845 -0.523741,0.04324 z"
       id="path1" /></g></svg>
